<?xml version="1.0" encoding="utf-8"?>
<!DOCTYPE svg PUBLIC "-//W3C//DTD SVG 1.1//EN" "http://www.w3.org/Graphics/SVG/1.1/DTD/svg11.dtd">
<svg version="1.1" id="Layer_1" xmlns="http://www.w3.org/2000/svg" xmlns:xlink="http://www.w3.org/1999/xlink" x="0px" y="0px"
	 width="128px" height="128px" viewBox="0 0 128 128" enable-background="new 0 0 128 128" xml:space="preserve">
<g>
	<g>
		<path stroke="#FFFFFF" stroke-miterlimit="10" d="M47.68,105.28c-3.072,0-5.729-0.209-7.968-0.624
			c-2.241-0.417-4.097-1.138-5.567-2.161c-1.474-1.023-2.561-2.385-3.265-4.08c-0.705-1.696-1.056-3.824-1.056-6.384
			c0-1.728,0.048-3.312,0.144-4.751c0.097-1.441,0.207-2.832,0.336-4.178c0.128-1.344,0.24-2.703,0.336-4.079
			c0.097-1.375,0.145-2.862,0.145-4.464c0-0.832-0.192-1.68-0.576-2.544s-1.089-1.632-2.112-2.305
			c-1.024-0.671-2.416-1.23-4.176-1.679c-1.761-0.447-3.984-0.673-6.672-0.673v-6.72c2.688,0,4.911-0.223,6.672-0.672
			c1.76-0.447,3.151-1.008,4.176-1.68c1.023-0.672,1.729-1.424,2.112-2.256c0.384-0.832,0.576-1.695,0.576-2.592
			c0-3.007-0.161-5.839-0.48-8.496c-0.321-2.655-0.479-5.647-0.479-8.976c0-2.559,0.351-4.688,1.056-6.384
			c0.704-1.695,1.791-3.056,3.265-4.08c1.471-1.023,3.326-1.743,5.567-2.16c2.239-0.415,4.896-0.624,7.968-0.624h6.625v6.048h-4.416
			c-2.242,0-4.065,0.129-5.473,0.384c-1.408,0.256-2.513,0.688-3.312,1.296c-0.801,0.609-1.344,1.408-1.632,2.4
			c-0.288,0.993-0.432,2.193-0.432,3.6c0,2.688,0.079,5.375,0.24,8.063c0.159,2.688,0.239,5.505,0.239,8.448
			c0,3.393-0.672,5.904-2.016,7.536c-1.344,1.632-3.713,2.736-7.104,3.312v0.385c3.391,0.576,5.76,1.68,7.104,3.312
			s2.016,4.145,2.016,7.535c0,3.071-0.08,5.89-0.239,8.448c-0.161,2.561-0.24,5.248-0.24,8.064c0,1.472,0.144,2.688,0.432,3.648
			c0.288,0.959,0.831,1.742,1.632,2.352c0.8,0.607,1.904,1.039,3.312,1.297c1.407,0.254,3.23,0.383,5.473,0.383h4.416v6.049H47.68z"
			/>
		<path stroke="#FFFFFF" stroke-miterlimit="10" d="M73.792,105.28v-6.049h4.415c2.176,0,3.968-0.129,5.377-0.383
			c1.406-0.258,2.527-0.689,3.359-1.297c0.832-0.609,1.393-1.393,1.68-2.352c0.287-0.961,0.434-2.177,0.434-3.648
			c0-2.816-0.082-5.504-0.241-8.064c-0.161-2.559-0.241-5.377-0.241-8.448c0-3.391,0.656-5.903,1.969-7.535
			c1.312-1.632,3.695-2.735,7.152-3.312v-0.385c-3.457-0.576-5.841-1.68-7.152-3.312c-1.312-1.631-1.969-4.143-1.969-7.536
			c0-2.943,0.08-5.76,0.241-8.448c0.159-2.688,0.241-5.376,0.241-8.063c0-1.407-0.146-2.607-0.434-3.6
			c-0.287-0.992-0.848-1.791-1.68-2.4c-0.832-0.608-1.953-1.04-3.359-1.296c-1.409-0.255-3.201-0.384-5.377-0.384h-4.415V22.72
			h6.624c3.071,0,5.712,0.209,7.92,0.624c2.207,0.417,4.047,1.137,5.52,2.16c1.471,1.024,2.559,2.385,3.265,4.08
			c0.703,1.696,1.055,3.825,1.055,6.384c0,3.329-0.159,6.321-0.479,8.976c-0.32,2.657-0.48,5.489-0.48,8.496
			c0,0.897,0.193,1.761,0.577,2.592c0.383,0.832,1.087,1.584,2.11,2.256s2.416,1.232,4.178,1.68
			c1.759,0.449,3.984,0.672,6.672,0.672v6.72c-2.688,0-4.913,0.226-6.672,0.673c-1.762,0.448-3.154,1.008-4.178,1.679
			c-1.023,0.673-1.728,1.44-2.11,2.305c-0.384,0.864-0.577,1.712-0.577,2.544c0,1.602,0.049,3.089,0.145,4.464
			c0.097,1.376,0.207,2.735,0.336,4.079c0.128,1.346,0.24,2.736,0.336,4.178c0.097,1.439,0.144,3.023,0.144,4.751
			c0,2.56-0.352,4.688-1.055,6.384c-0.706,1.695-1.794,3.057-3.265,4.08c-1.473,1.023-3.312,1.744-5.52,2.161
			c-2.208,0.415-4.849,0.624-7.92,0.624H73.792z"/>
	</g>
	<g>
		<path d="M61.613,47.396c0,0.712-0.104,1.333-0.313,1.861c-0.21,0.528-0.51,0.966-0.9,1.312c-0.391,0.347-0.859,0.606-1.406,0.778
			s-1.157,0.258-1.833,0.258c-0.55,0-1.062-0.047-1.537-0.141s-0.865-0.206-1.172-0.337v-2.1c0.175,0.094,0.373,0.186,0.596,0.276
			c0.222,0.091,0.453,0.172,0.693,0.244c0.24,0.072,0.486,0.128,0.736,0.168s0.496,0.061,0.74,0.061c0.693,0,1.213-0.2,1.557-0.6
			s0.516-0.987,0.516-1.762v-7.491h-4.528v-1.781h6.853V47.396z M61.801,35.537c0,0.207-0.037,0.4-0.112,0.582
			c-0.075,0.181-0.18,0.339-0.313,0.473c-0.135,0.134-0.294,0.241-0.479,0.319s-0.383,0.117-0.596,0.117
			c-0.212,0-0.409-0.039-0.59-0.117c-0.182-0.078-0.34-0.185-0.474-0.319c-0.135-0.134-0.239-0.292-0.314-0.473
			c-0.075-0.182-0.112-0.375-0.112-0.582c0-0.206,0.037-0.4,0.112-0.581s0.18-0.341,0.314-0.478
			c0.134-0.138,0.292-0.246,0.474-0.324c0.181-0.078,0.378-0.117,0.59-0.117c0.213,0,0.411,0.039,0.596,0.117
			s0.344,0.186,0.479,0.324c0.134,0.137,0.238,0.297,0.313,0.478S61.801,35.331,61.801,35.537z"/>
		<path d="M73.051,44.865c0,0.544-0.119,1.008-0.36,1.392c-0.241,0.385-0.56,0.697-0.956,0.938c-0.396,0.241-0.848,0.416-1.35,0.525
			c-0.504,0.109-1.018,0.164-1.543,0.164c-0.699,0-1.331-0.033-1.894-0.099s-1.094-0.161-1.594-0.286v-2.062
			c0.587,0.244,1.173,0.42,1.758,0.53s1.136,0.164,1.655,0.164c0.6,0,1.048-0.095,1.345-0.286c0.297-0.191,0.445-0.439,0.445-0.746
			c0-0.144-0.031-0.275-0.094-0.394s-0.18-0.233-0.352-0.342s-0.414-0.222-0.727-0.337s-0.722-0.246-1.228-0.389
			c-0.469-0.131-0.881-0.28-1.233-0.445s-0.646-0.361-0.877-0.586s-0.404-0.486-0.521-0.783c-0.115-0.297-0.173-0.646-0.173-1.045
			c0-0.388,0.087-0.753,0.263-1.097c0.175-0.344,0.436-0.646,0.783-0.905c0.346-0.259,0.779-0.464,1.298-0.614
			s1.125-0.225,1.819-0.225c0.6,0,1.131,0.031,1.594,0.094c0.462,0.062,0.871,0.131,1.228,0.207v1.866
			c-0.544-0.175-1.055-0.299-1.532-0.371c-0.479-0.072-0.952-0.108-1.421-0.108s-0.845,0.084-1.13,0.253
			c-0.284,0.168-0.426,0.403-0.426,0.703c0,0.144,0.027,0.272,0.084,0.384s0.167,0.222,0.332,0.328
			c0.166,0.106,0.397,0.217,0.694,0.333c0.297,0.115,0.688,0.242,1.177,0.379c0.55,0.156,1.012,0.324,1.387,0.501
			c0.375,0.178,0.678,0.38,0.905,0.605s0.392,0.481,0.492,0.769S73.051,44.496,73.051,44.865z"/>
		<path d="M57.066,70.343c-0.449,0.181-0.915,0.314-1.396,0.402s-0.984,0.131-1.51,0.131c-0.756,0-1.434-0.103-2.034-0.309
			c-0.6-0.207-1.109-0.513-1.528-0.919c-0.418-0.406-0.738-0.909-0.961-1.509c-0.222-0.601-0.332-1.295-0.332-2.082
			c0-0.762,0.12-1.453,0.36-2.072c0.241-0.618,0.58-1.146,1.018-1.584s0.964-0.775,1.579-1.012c0.616-0.238,1.302-0.357,2.059-0.357
			c0.618,0,1.139,0.033,1.561,0.099c0.422,0.065,0.802,0.148,1.139,0.249v2.222c-0.387-0.194-0.808-0.344-1.261-0.45
			c-0.453-0.105-0.883-0.159-1.289-0.159c-0.425,0-0.806,0.071-1.144,0.216c-0.338,0.144-0.622,0.344-0.854,0.6
			c-0.23,0.256-0.407,0.567-0.529,0.934c-0.122,0.365-0.183,0.767-0.183,1.204c0,0.456,0.065,0.866,0.196,1.228
			c0.132,0.363,0.317,0.671,0.559,0.924c0.24,0.254,0.529,0.447,0.867,0.582c0.337,0.134,0.712,0.201,1.125,0.201
			c0.199,0,0.41-0.014,0.633-0.043c0.222-0.027,0.443-0.068,0.665-0.121s0.44-0.114,0.656-0.184
			c0.216-0.068,0.417-0.143,0.604-0.225V70.343z"/>
		<path d="M67.773,67.905c0,0.543-0.121,1.008-0.361,1.392s-0.559,0.696-0.956,0.938s-0.847,0.415-1.351,0.524
			c-0.503,0.109-1.017,0.164-1.542,0.164c-0.7,0-1.331-0.032-1.894-0.098c-0.562-0.066-1.094-0.161-1.594-0.286v-2.062
			c0.588,0.243,1.174,0.421,1.758,0.53s1.136,0.164,1.654,0.164c0.601,0,1.049-0.096,1.346-0.287
			c0.297-0.189,0.445-0.438,0.445-0.744c0-0.145-0.031-0.275-0.094-0.395s-0.18-0.232-0.352-0.342s-0.414-0.223-0.727-0.338
			s-0.722-0.245-1.229-0.389c-0.469-0.131-0.879-0.279-1.232-0.445s-0.646-0.361-0.877-0.586c-0.23-0.225-0.404-0.486-0.52-0.783
			c-0.116-0.297-0.174-0.645-0.174-1.045c0-0.388,0.088-0.754,0.263-1.098s0.436-0.645,0.782-0.904
			c0.348-0.26,0.78-0.464,1.299-0.614s1.125-0.225,1.818-0.225c0.601,0,1.132,0.031,1.594,0.094
			c0.463,0.062,0.873,0.131,1.229,0.206v1.865c-0.543-0.174-1.055-0.298-1.533-0.369c-0.478-0.072-0.951-0.108-1.42-0.108
			s-0.846,0.085-1.13,0.253c-0.284,0.169-0.427,0.403-0.427,0.703c0,0.145,0.028,0.271,0.085,0.385
			c0.056,0.112,0.167,0.222,0.333,0.328c0.165,0.105,0.396,0.217,0.693,0.332c0.297,0.116,0.689,0.242,1.177,0.381
			c0.55,0.156,1.013,0.322,1.388,0.501s0.676,0.38,0.904,0.604s0.393,0.481,0.492,0.77C67.723,67.208,67.773,67.536,67.773,67.905z"
			/>
		<path d="M78.33,67.905c0,0.543-0.121,1.008-0.361,1.392s-0.56,0.696-0.957,0.938c-0.396,0.241-0.846,0.415-1.35,0.524
			c-0.503,0.109-1.018,0.164-1.542,0.164c-0.7,0-1.331-0.032-1.894-0.098c-0.562-0.066-1.094-0.161-1.594-0.286v-2.062
			c0.588,0.243,1.174,0.421,1.758,0.53s1.136,0.164,1.654,0.164c0.6,0,1.049-0.096,1.346-0.287c0.297-0.189,0.445-0.438,0.445-0.744
			c0-0.145-0.031-0.275-0.094-0.395s-0.18-0.232-0.352-0.342s-0.414-0.223-0.727-0.338s-0.723-0.245-1.229-0.389
			c-0.469-0.131-0.879-0.279-1.232-0.445s-0.646-0.361-0.877-0.586c-0.23-0.225-0.404-0.486-0.52-0.783
			c-0.116-0.297-0.174-0.645-0.174-1.045c0-0.388,0.088-0.754,0.262-1.098c0.176-0.344,0.437-0.645,0.783-0.904
			c0.348-0.26,0.779-0.464,1.299-0.614c0.519-0.15,1.125-0.225,1.818-0.225c0.6,0,1.131,0.031,1.594,0.094s0.872,0.131,1.229,0.206
			v1.865c-0.544-0.174-1.055-0.298-1.533-0.369c-0.479-0.072-0.951-0.108-1.42-0.108s-0.846,0.085-1.13,0.253
			c-0.284,0.169-0.427,0.403-0.427,0.703c0,0.145,0.028,0.271,0.084,0.385c0.057,0.112,0.168,0.222,0.334,0.328
			c0.165,0.105,0.396,0.217,0.693,0.332c0.297,0.116,0.689,0.242,1.176,0.381c0.551,0.156,1.014,0.322,1.389,0.501
			s0.676,0.38,0.904,0.604s0.393,0.481,0.492,0.77C78.279,67.208,78.33,67.536,78.33,67.905z"/>
		<path d="M49.764,93.747v-6.205c0-1.045-0.388-1.566-1.162-1.566c-0.388,0-0.758,0.156-1.111,0.469s-0.727,0.738-1.12,1.275v6.027
			h-2.288V80.501h2.288v3.262l-0.112,1.726c0.193-0.231,0.391-0.438,0.59-0.624c0.2-0.184,0.416-0.338,0.647-0.463
			s0.481-0.221,0.75-0.287c0.269-0.064,0.565-0.098,0.891-0.098c0.487,0,0.912,0.08,1.274,0.238c0.363,0.16,0.666,0.385,0.91,0.676
			c0.243,0.291,0.426,0.641,0.548,1.05s0.183,0.867,0.183,1.374v6.393H49.764z"/>
		<path d="M62.495,93.653c-0.413,0.094-0.828,0.17-1.247,0.226s-0.815,0.085-1.19,0.085c-0.625,0-1.164-0.066-1.617-0.197
			s-0.828-0.332-1.125-0.6c-0.297-0.27-0.516-0.611-0.656-1.027s-0.211-0.91-0.211-1.486v-4.649h-2.56v-1.781h2.56v-2.438
			l2.344-0.609v3.047h3.703v1.781h-3.703v4.481c0,0.543,0.125,0.955,0.375,1.232c0.25,0.278,0.669,0.418,1.256,0.418
			c0.375,0,0.741-0.031,1.097-0.094c0.356-0.062,0.682-0.135,0.976-0.217V93.653z"/>
		<path d="M71.917,93.747v-6.486c0-0.238-0.007-0.445-0.019-0.624c-0.013-0.179-0.037-0.327-0.075-0.445s-0.093-0.208-0.164-0.267
			c-0.071-0.061-0.171-0.09-0.296-0.09c-0.193,0-0.384,0.131-0.571,0.395c-0.188,0.262-0.399,0.709-0.638,1.34v6.178h-1.959v-6.486
			c0-0.238-0.006-0.445-0.02-0.624c-0.012-0.179-0.037-0.327-0.074-0.445s-0.094-0.208-0.169-0.267
			c-0.075-0.061-0.175-0.09-0.3-0.09c-0.162,0-0.344,0.131-0.544,0.395c-0.2,0.262-0.422,0.709-0.665,1.34v6.178h-1.979v-9.524
			h1.696l0.038,1.388c0.137-0.281,0.275-0.521,0.412-0.723c0.138-0.199,0.285-0.363,0.441-0.492c0.156-0.127,0.322-0.22,0.501-0.275
			c0.179-0.057,0.38-0.085,0.604-0.085c0.531,0,0.936,0.14,1.215,0.417c0.277,0.278,0.436,0.664,0.473,1.158
			c0.15-0.281,0.299-0.521,0.445-0.723c0.146-0.199,0.301-0.363,0.459-0.492c0.16-0.127,0.332-0.22,0.516-0.275
			c0.186-0.057,0.39-0.085,0.615-0.085c0.693,0,1.205,0.242,1.537,0.727c0.331,0.484,0.496,1.202,0.496,2.151v6.834H71.917z"/>
		<path d="M78.826,82.282h-2.69v-1.781h5.034v11.465h2.747v1.781h-8.109v-1.781h3.019V82.282z"/>
	</g>
</g>
<g>
	<path fill="#0027FF" stroke="#FFFFFF" stroke-miterlimit="10" d="M40.918,90.297v22.5c0,0.87-0.318,1.623-0.954,2.259
		c-0.637,0.638-1.39,0.955-2.26,0.955c-0.871,0-1.624-0.317-2.26-0.955l-7.232-7.231l-16.674,16.674
		c-0.335,0.334-0.721,0.502-1.155,0.502c-0.436,0-0.821-0.168-1.155-0.502l-5.726-5.725C3.167,118.438,3,118.053,3,117.617
		c0-0.435,0.167-0.82,0.502-1.155l16.674-16.673l-7.232-7.233c-0.637-0.636-0.955-1.389-0.955-2.259
		c0-0.871,0.318-1.625,0.955-2.262c0.636-0.635,1.389-0.953,2.26-0.953h22.5c0.87,0,1.624,0.318,2.26,0.953
		C40.6,88.672,40.918,89.426,40.918,90.297z"/>
</g>
<g>
	<path fill="#0027FF" stroke="#FFFFFF" stroke-miterlimit="10" d="M125,10.383c0,0.436-0.168,0.821-0.502,1.155l-16.674,16.674
		l7.232,7.232c0.635,0.636,0.954,1.39,0.954,2.26c0,0.871-0.319,1.625-0.954,2.26c-0.637,0.636-1.39,0.954-2.26,0.954h-22.5
		c-0.871,0-1.625-0.318-2.26-0.954c-0.637-0.636-0.955-1.389-0.955-2.26v-22.5c0-0.87,0.318-1.624,0.955-2.26
		c0.635-0.636,1.389-0.955,2.26-0.955c0.87,0,1.623,0.319,2.26,0.955l7.232,7.232l16.674-16.674C116.797,3.168,117.183,3,117.617,3
		c0.436,0,0.82,0.168,1.156,0.502l5.725,5.726C124.832,9.562,125,9.948,125,10.383z"/>
</g>
</svg>
